<?xml version="1.0" encoding="UTF-8" standalone="no"?>
<!DOCTYPE svg PUBLIC "-//W3C//DTD SVG 1.1//EN"
"http://www.w3.org/Graphics/SVG/1.1/DTD/svg11.dtd">
<svg viewBox="0 0 990 1320" version="1.1" xmlns="http://www.w3.org/2000/svg" xmlns:xlink="http://www.w3.org/1999/xlink">
<defs>
<style type="text/css"><![CDATA[
.g6_1{
fill: #E6E6E6;
}
.g9_1{
fill: none;
stroke: #DC303D;
stroke-width: 1;
stroke-linecap: butt;
stroke-linejoin: miter;
stroke-dasharray: 4,2;
}
.g11_1{
fill: none;
stroke: #DC303D;
stroke-width: 1;
stroke-linecap: butt;
stroke-linejoin: miter;
stroke-dasharray: 3,2;
}
.g8_1{
fill: none;
stroke: #DC303D;
stroke-width: 4;
stroke-linecap: butt;
stroke-linejoin: miter;
}
.g4_1{
fill: none;
stroke: #DC303D;
stroke-width: 2;
stroke-linecap: butt;
stroke-linejoin: miter;
stroke-dasharray: 5,3;
}
.g5_1{
fill: none;
stroke: #DC303D;
stroke-width: 2;
stroke-linecap: butt;
stroke-linejoin: miter;
}
.g10_1{
fill: none;
stroke: #DC303D;
stroke-width: 1;
stroke-linecap: square;
stroke-linejoin: miter;
}
.g3_1{
fill: none;
stroke: #DC303D;
stroke-width: 1;
stroke-linecap: butt;
stroke-linejoin: miter;
}
.g2_1{
fill: none;
stroke: #FF0000;
stroke-width: 1;
stroke-linecap: butt;
stroke-linejoin: miter;
}
.g7_1{
fill: #E5E5E5;
}
.g1_1{
fill: none;
stroke: #000000;
stroke-width: 1;
stroke-linecap: butt;
stroke-linejoin: miter;
}
]]></style>
</defs>
<path d="M0.5,1320.5l990,0l0,-1320l-990,0l0,1320Z" class="g1_1" />
<path d="M38.5,147.5l13,0l0,-16l-13,0l0,16Z" class="g2_1" />
<path d="M51.5,147.5l13,0l0,-16l-13,0l0,16Z" class="g2_1" />
<path d="M64.5,147.5l13,0l0,-16l-13,0l0,16Z" class="g2_1" />
<path d="M264.5,773.5l0,253" class="g3_1" />
<path d="M197,807l0,218" class="g4_1" />
<path d="M163,807l0,218" class="g4_1" />
<path d="M129.5,807.5l0,218" class="g3_1" />
<path d="M229.6,773.7l-0.1,252.6" class="g3_1" />
<path d="M297.5,773.5l0,253" class="g3_1" />
<path d="M67,807l0,218" class="g4_1" />
<path d="M39.5,842.5l699,0" class="g3_1" />
<path d="M575.4,149.5l-0.1,1009" class="g5_1" />
<path d="M703,1135l0,23l206,0l0,-23l-206,0Z" class="g6_1" />
<path d="M716.5,773.5l0,253" class="g3_1" />
<path d="M739.5,773.5l0,253" class="g3_1" />
<path d="M772.5,773.5l0,252" class="g3_1" />
<path d="M643,807l0,218" class="g4_1" />
<path d="M381.5,797.5l0,228" class="g3_1" />
<path d="M415,807l0,218" class="g4_1" />
<path d="M451,807l0,218" class="g4_1" />
<path d="M483,807l0,218" class="g4_1" />
<path d="M515.7,773.7l-0.1,252.6" class="g3_1" />
<path d="M672.5,773.5l0,252" class="g3_1" />
<path d="M39,807l0,18l868,0l0,-18L39,807Z" class="g6_1" />
<path d="M39,843l0,15l868,0l0,-15L39,843Z" class="g6_1" />
<path d="M404,1135l0,23l170,0l0,-23l-170,0Z" class="g6_1" />
<path d="M333,625l0,19l241,0l0,-19l-241,0Z" class="g7_1" />
<path d="M39,988l0,18l868,0l0,-18L39,988Z" class="g6_1" />
<path d="M39,951l0,18l868,0l0,-18L39,951Z" class="g6_1" />
<path d="M39,916l0,17l868,0l0,-17L39,916Z" class="g6_1" />
<path d="M39,879l0,17l868,0l0,-17L39,879Z" class="g6_1" />
<path d="M908.2,223.7l-869,0.5" class="g3_1" />
<path d="M39.5,295.5l316,0" class="g3_1" />
<path d="M39.5,367.5l316,0" class="g3_1" />
<path d="M310.5,261.5l0,34" class="g3_1" />
<path d="M179.5,296.5l0,38" class="g3_1" />
<path d="M39.5,404.5l316,0" class="g3_1" />
<path d="M39.5,626.5l869,0" class="g3_1" />
<path d="M79.5,622.5l0,5" class="g3_1" />
<path d="M79.5,614.5l0,6" class="g3_1" />
<path d="M79.5,607.5l0,5" class="g3_1" />
<path d="M111.5,621.5l0,6" class="g3_1" />
<path d="M111.5,614.5l0,5" class="g3_1" />
<path d="M111.5,607.5l0,5" class="g3_1" />
<path d="M333.5,587.5l0,77" class="g3_1" />
<path d="M464.5,619.5l0,6" class="g3_1" />
<path d="M464.5,612.5l0,5" class="g3_1" />
<path d="M464.5,605.5l0,5" class="g3_1" />
<path d="M497.5,620.5l0,6" class="g3_1" />
<path d="M497.5,612.5l0,5" class="g3_1" />
<path d="M497.5,604.5l0,6" class="g3_1" />
<path d="M41.5,807.5l862,0" class="g3_1" />
<path d="M39.5,879.5l699,0" class="g3_1" />
<path d="M39.5,915.5l699,0" class="g3_1" />
<path d="M39.5,952.5l699,0" class="g3_1" />
<path d="M39.5,989.5l699,0" class="g3_1" />
<path d="M907.9,1026.1l-868.7,0.2" class="g3_1" />
<path d="M907.9,1064.2l-868.7,0.2" class="g3_1" />
<path d="M281.5,1026.5l0,132" class="g3_1" />
<path d="M438.5,1026.5l0,37" class="g3_1" />
<path d="M908.2,588.6l-869,0.1" class="g8_1" />
<path d="M576.5,295.5l332,0" class="g3_1" />
<path d="M576.5,369.5l332,0" class="g3_1" />
<path d="M639.5,398.5l0,6" class="g3_1" />
<path d="M639.5,391.5l0,6" class="g3_1" />
<path d="M639.5,384.5l0,5" class="g3_1" />
<path d="M674.5,398.5l0,5" class="g3_1" />
<path d="M674.5,391.5l0,5" class="g3_1" />
<path d="M674.5,383.5l0,6" class="g3_1" />
<path d="M576.5,441.5l332,0" class="g3_1" />
<path d="M646.5,619.5l0,5" class="g3_1" />
<path d="M646.5,612.5l0,5" class="g3_1" />
<path d="M646.5,604.5l0,6" class="g3_1" />
<path d="M681.5,619.5l0,5" class="g3_1" />
<path d="M681.5,611.5l0,6" class="g3_1" />
<path d="M681.5,604.5l0,5" class="g3_1" />
<path d="M801.5,619.5l0,5" class="g3_1" />
<path d="M801.5,612.5l0,5" class="g3_1" />
<path d="M801.5,605.5l0,5" class="g3_1" />
<path d="M834.5,618.5l0,6" class="g3_1" />
<path d="M834.5,611.5l0,6" class="g3_1" />
<path d="M834.5,603.5l0,5" class="g3_1" />
<path d="M646.5,657.5l0,5" class="g3_1" />
<path d="M646.5,650.5l0,5" class="g3_1" />
<path d="M646.5,642.5l0,6" class="g3_1" />
<path d="M681.5,657.5l0,5" class="g3_1" />
<path d="M681.5,649.5l0,6" class="g3_1" />
<path d="M681.5,642.5l0,5" class="g3_1" />
<path d="M801.5,657.5l0,6" class="g3_1" />
<path d="M801.5,650.5l0,5" class="g3_1" />
<path d="M801.5,642.5l0,6" class="g3_1" />
<path d="M834.5,657.5l0,5" class="g3_1" />
<path d="M834.5,650.5l0,5" class="g3_1" />
<path d="M834.5,642.5l0,6" class="g3_1" />
<path d="M702.5,677.5l0,22" class="g3_1" />
<path d="M809.5,677.5l0,22" class="g3_1" />
<path d="M909.5,734.9L576.1,735" class="g3_1" />
<path d="M702.5,715.5l0,19" class="g3_1" />
<path d="M668.5,1050.5l0,6" class="g3_1" />
<path d="M668.5,1043.5l0,5" class="g3_1" />
<path d="M668.5,1057.5l0,6" class="g3_1" />
<path d="M776.5,1050.5l0,6" class="g3_1" />
<path d="M776.5,1043.5l0,5" class="g3_1" />
<path d="M776.5,1058.5l0,5" class="g3_1" />
<path d="M875.5,1051.5l0,5" class="g3_1" />
<path d="M875.5,1044.5l0,5" class="g3_1" />
<path d="M875.5,1058.5l0,5" class="g3_1" />
<path d="M697.9,1026.5l0,37.2" class="g3_1" />
<path d="M703.5,1136.5l0,21" class="g3_1" />
<path d="M715.5,295.5l0,38" class="g3_1" />
<path d="M908.2,665.7l-869,0.4" class="g3_1" />
<path d="M908.2,187.9l-869,0.2" class="g3_1" />
<path d="M908.5,262.5l-869,0" class="g3_1" />
<path d="M39.5,334.5l869,0" class="g3_1" />
<path d="M908.5,479.5l-869,0" class="g3_1" />
<path d="M39.5,442.5l316,0" class="g3_1" />
<path d="M908.5,517.5l-869,0" class="g3_1" />
<path d="M576.5,406.5l332,0" class="g3_1" />
<path d="M920.1,141.3l-2.5,7.2" class="g5_1" />
<path d="M914.4,141.6l2.6,6.9" class="g5_1" />
<path d="M906.5,149.5l14,0" class="g3_1" />
<path d="M917.5,149.5l0,106" class="g3_1" />
<path d="M918.3,502.6l0,86.5" class="g3_1" />
<path d="M918.5,583.5l0,182" class="g3_1" />
<path d="M918.5,1030.5l0,127" class="g3_1" />
<path d="M917.5,36.5l0,24" class="g3_1" />
<path d="M917.5,123.5l0,26" class="g3_1" />
<path d="M907.5,588.5l14,0" class="g3_1" />
<path d="M908.5,1158.5l13,0" class="g3_1" />
<path d="M908.5,699.5l-869,0" class="g3_1" />
<path d="M834.5,261.5l0,34" class="g3_1" />
<path d="M398.5,217.5l0,5" class="g3_1" />
<path d="M398.5,210.5l0,5" class="g3_1" />
<path d="M398.5,202.5l0,6" class="g3_1" />
<path d="M431.5,217.5l0,5" class="g3_1" />
<path d="M431.5,210.5l0,5" class="g3_1" />
<path d="M431.5,202.5l0,6" class="g3_1" />
<path d="M519.5,440.5l32,0" class="g3_1" />
<path d="M519.5,433.5l0,7" class="g3_1" />
<path d="M551.5,433.5l0,7" class="g3_1" />
<path d="M355.5,187.5l0,330" class="g3_1" />
<path d="M403.5,1136.5l0,21" class="g3_1" />
<path d="M381.5,626.5l0,39" class="g3_1" />
<path d="M908.1,1135.5L282,1135.7" class="g3_1" />
<path d="M740.5,879.5l167,0" class="g3_1" />
<path d="M740.5,860.5l167,0" class="g9_1" />
<path d="M741,824.9l166.5,0.3" class="g9_1" />
<path d="M740.5,915.5l167,0" class="g3_1" />
<path d="M740.5,897.5l167,0" class="g9_1" />
<path d="M740.5,952.5l167,0" class="g3_1" />
<path d="M740.5,989.5l167,0" class="g3_1" />
<path d="M740.5,933.5l167,0" class="g9_1" />
<path d="M740.5,970.5l167,0" class="g9_1" />
<path d="M740.5,1007.5l167,0" class="g9_1" />
<path d="M740.5,843.5l167,0" class="g3_1" />
<path d="M355.5,626.5l0,39" class="g3_1" />
<path d="M801.5,1026.5l0,37" class="g3_1" />
<path d="M917.5,36.4l2.5,6.9" class="g5_1" />
<path d="M917,36.4l-2.6,7.1" class="g5_1" />
<path d="M917,149.6l-2.6,7.1" class="g5_1" />
<path d="M917.5,149.6l2.5,6.8" class="g5_1" />
<path d="M921,581.6l-2.5,7.1" class="g5_1" />
<path d="M915.3,581.9l2.6,6.8" class="g5_1" />
<path d="M921.1,1148.6l-2.5,7.1" class="g5_1" />
<path d="M915.4,1148.9l2.6,6.8" class="g5_1" />
<path d="M918.4,587.8l2.5,6.8" class="g5_1" />
<path d="M917.9,587.8l-2.6,7.1" class="g5_1" />
<path d="M38.8,150.2L39,1158" class="g10_1" />
<path d="M907.9,150.8l0.2,1007.9" class="g10_1" />
<path d="M908,1158l-867.8,0.1" class="g8_1" />
<path d="M575.5,644.5l-242,0" class="g11_1" />
<image x="33" y="26" width="65" height="65" xlink:href="img/1.png" />
<path d="M894.5,148.5l13,0l0,-17l-13,0l0,17Z" class="g2_1" />
<path d="M881.5,148.5l13,0l0,-17l-13,0l0,17Z" class="g2_1" />
<path d="M868.5,148.5l13,0l0,-17l-13,0l0,17Z" class="g2_1" />
<path d="M62.5,725.5l0,9" class="g3_1" />
<path d="M142.5,734.5l-81,0" class="g3_1" />
<path d="M62.5,743.5l0,9" class="g3_1" />
<path d="M142.5,752.5l-81,0" class="g3_1" />
<path d="M61.5,762.5l0,9" class="g3_1" />
<path d="M141.5,771.5l-80,0" class="g3_1" />
<path d="M203.5,724.5l0,9" class="g3_1" />
<path d="M283.5,733.5l-81,0" class="g3_1" />
<path d="M203.5,743.5l0,9" class="g3_1" />
<path d="M283.5,752.5l-81,0" class="g3_1" />
<path d="M202.5,762.5l0,9" class="g3_1" />
<path d="M282.5,771.5l-80,0" class="g3_1" />
<path d="M346.5,724.5l0,9" class="g3_1" />
<path d="M426.5,733.5l-81,0" class="g3_1" />
<path d="M346.5,743.5l0,9" class="g3_1" />
<path d="M426.5,752.5l-81,0" class="g3_1" />
<path d="M345.5,762.5l0,9" class="g3_1" />
<path d="M425.5,771.5l-80,0" class="g3_1" />
<path d="M490.5,725.5l0,9" class="g3_1" />
<path d="M570.5,734.5l-81,0" class="g3_1" />
<path d="M490.5,743.5l0,10" class="g3_1" />
<path d="M570.5,753.5l-81,0" class="g3_1" />
<path d="M489.5,762.5l0,9" class="g3_1" />
<path d="M569.5,771.5l-80,0" class="g3_1" />
<path d="M202.5,620.5l0,5" class="g3_1" />
<path d="M202.5,613.5l0,5" class="g3_1" />
<path d="M202.5,605.5l0,6" class="g3_1" />
<path d="M366.5,620.5l0,6" class="g3_1" />
<path d="M366.5,613.5l0,5" class="g3_1" />
<path d="M366.5,606.5l0,5" class="g3_1" />
<path d="M410.5,619.5l0,6" class="g3_1" />
<path d="M410.5,612.5l0,5" class="g3_1" />
<path d="M410.5,605.5l0,5" class="g3_1" />
<path d="M490.5,706.5l0,6" class="g3_1" />
<path d="M490.5,699.5l0,6" class="g3_1" />
<path d="M908.5,773.5l-869,0" class="g3_1" />
<path d="M907.7,150.1l-869.6,0" class="g8_1" />
<path d="M512.5,707.5l0,5" class="g3_1" />
<path d="M512.5,700.5l0,5" class="g3_1" />
</svg>